<svg xmlns="http://www.w3.org/2000/svg" xml:space="preserve" width="1070.96" height="300" viewBox="0 0 1070.96 300"><path d="M46.237.032h105.558v42.48H46.237Zm.626 41.85h104.301V.661H46.863Z" style="fill:#00569c;fill-opacity:1;fill-rule:nonzero;stroke:none" transform="matrix(7.0553 0 0 -7.0553 .001 299.995)"/><path fill="#00569c" d="m60.116 32.123.624.784.471.155.706.159 1.022.078 1.567.08 1.373-.044 1.253-.036 1.177-.237.747-.702.863-1.022.077-.744-.314-.664-.393-.475-.784-.547-.822-.43-.117-.51.078-.55.627-.626 1.06-.944.468-.746.392-.548.238-.506.113-.589-.233-.866-.55-.744-.703-.235-.669.076-.547.238-.589.785-.63.55-.587.466-.352.629-.313.237h-.589l-.546-.154-.63-.552-.393-.392-.237-.355-.231-.43-.475-.392-.47-.471-.707-.154-.623.074-.475.158-.624.238-.16.548v1.098l.16.547.31.63.552.86.391.626.393.747.51.907.159.547-.314.47-.471.703-.236.551-.311.547-.159.551z" style="stroke-width:.912877" transform="matrix(7.0553 0 0 -7.0553 .001 299.995)"/><path fill="#00569c" d="m63.154 22.144.547.078h.785l.392-.234.707-.391.232-.47V20.03l.118-.355.355-.275.275-.2.506-.073.589-.077.592-.041h1.022l1.016-.079.705-.159.471-.155.277-.233.15-.469.046-.63-.04-.427-.236-.592-.899-.234-.712-.118h-.743l-.428-.237-.16-.195-.04-.238.077-.785.237-.35-.037-.666-.16-.666-.078-.47-.235-.628-.47-.903-.707-.547-.702-.316-.67-.432-.662-.236-1.059-.079-1.02.079-.98.236-.865.51-.584.393-.671.665-.314.547-.314.588-.157 1.063V14.303l.157.625.156.547-.193.396-.588.041-.43.036-.943-.036-.744.118-.514.155-.51.748-.274.743-.155.825.392.63.51.231.785.079.705.037h2.586l.553-.079h.547l.396.079.387.235v.393l-.077.47-.078.628.311.471.551.272zm-.237-6.98-.314-.391-.237-.629-.077-.471v-.628l.314-.388.314-.316.702-.235.789-.12.625.275.352.237.317.432.079.547.118.512-.356.823-.314.393-.588.237-.63.033h-.547z" style="stroke-width:.912877" transform="matrix(7.0553 0 0 -7.0553 .001 299.995)"/><path fill="#00569c" d="m93.232 30.2.547.475.626.388.905.083.703.31H97.306l.548-.079.47-.155.944-.076.468-.165.863-.192.706-.117.47-.118.236-.037.943-.434.546-.31.393-.32.392-.468.082-.546.077-.707v-.546l-.159-.709-.196-.983-.314-.975-.314-.944-.036-.703-.155-.71-.083-.902.042-.075.387-.313.866-.083.705-.154.392-.389.238-.472-.08-.63-.434-.346-.234-.473-.664-.037-1.1-.083-1.333-.117H99.973l-.746-.038-.47.038-.628-.079-.471-.076-.114-.867v-.78l.075-.551.08-.551.47-.469.706-.312.707-.158h.862l.86-.077h.548l1.098-.278.825-.197.865-.314.312-.546.076-.704-.155-.39-.314-.316-.511-.277-.978-.12-.626.042-1.14.124-.705-.046-1.017.046-.552.077-.584.232-.824.041-.943.197-.862.155-.706.468-.47.712-.314.698-.077.782-.041.475-.079.743-.155.706-.117.47-.155.51-.278.51-.903.553-.35.118-.393.468-.155.63.155.629.236.465.625.236.706.238h2.12l.47.155.469-.237h.863l1.139.04.586.115.547.04.357.119.19.939.082 1.145.159.427v1.098l-.08.548-.155.625-.315.237-.273.237-1.259.036-.624.082-.474-.082-.624-.036-.629-.04-.47.158-.784.196-.391.155-.471.392-.547.51-.355.625.077.748z" style="stroke-width:.912631" transform="matrix(7.0553 0 0 -7.0553 .001 299.995)"/><path fill="#00569c" d="m126.386 31.728.31.237.67.16.707.04.47-.159.392-.04.586.08.63-.197.471-.117h.272l.275-.041.51-.156.313-.116.471-.084.314-.229.274-.317.196-.269.196-.279.155-.391-.155-.47-.196-.391-.12-.278-.391-.156-.273-.355-.316-.116-.273-.23-.354-.161-.275-.073h-.392l-.547-.041-.196-.045-.273-.232-.316-.316-.196-.309-.076-.237v-.355l-.04-.275.077-.468.118-.275.274-.077.473-.314h.43l.468-.16.434-.036h.433l.547.036.665-.036h.278l.351-.041.273-.155.392-.196.04-.196.038-.316.082-.472-.082-.197-.037-.309-.076-.237-.161-.155-.196-.316-.232-.155-.55-.196-.626-.159-.67.16-.665.037h-.51l-.47.082h-1.021l-.429-.082-.551.082-.392.196-.47.076-.315.237-.391.193-.352.196-.155.396-.314.427-.2.708-.036.665-.12.351-.077.588-.037.748-.041.705v.708l-.08.506-.116.273-.196.591v.744l.274.433.238.351.272.355.274.393zM136.15 30.046l.315.55.197.276.468.191.237.2.584.073.514.082.43.08.354-.08.352-.233.469-.475.157-.272.159-.507.04-.55-.16-.589-.04-.512.077-.546-.037-.393-.118-.51v-.433l-.155-.31.077-.395.078-.273.155-.316.314-.155.315.037.238.041.351-.12.195-.195.432-.155.352-.196.12-.351.04-.393-.12-.313-.196-.63-.276-.196-.312-.118-.51-.037-.51-.041-.47-.076h-.392l-.232-.196-.279-.079-.196-.076-.313-.12-.275-.118-.314-.078-.392-.077h-.313l-.275.077-.351.196-.155.237-.278.465.12.63-.038.67.079.624.035.629v1.408l.042.434-.077.587v.47l.035.474-.155.31-.076.47-.238.356-.037.272zM134.165 20.523l.592-.12.475-.2.236-.472.077-.429.079-.396.158-.196.555-.122.275-.074.273-.2.396-.238.51-.472.279-.552.154-.51.237-.552V14.49l-.196-.746-.274-.671-.235-.355-.396-.396-.475-.506-.434-.204-.196-.233-.43-.237-.671-.118-.752-.196-.55.076h-.63l-.826.041h-.514l-.905.396-.551.313-.593.471-.474.555-.196.512-.238.393-.154.196-.159.827v.83l.195.985.201.591.392.824.474.712.432.472.475.316.509.392.551.277.516.316.551.2.469.072.396.042.278-.079zm-1.22-3.312-.353-.237-.276-.313-.196-.275-.238-.277-.04-.474.081-.551.114-.475.279-.355.355-.392.335-.453.37.02.355-.04.557.04.352.12.158.113.314.042.197.237.236.396.16.272.12.32.039.627-.082.434-.195.314-.196.316-.041.275-.238.157-.273.118-.319.118-.47.078H133.223z" style="stroke-width:.912716" transform="matrix(7.0553 0 0 -7.0553 .001 299.995)"/><path fill="#00569c" d="M21.258 34.008c-7.04 0-12.746-5.71-12.746-12.748 0-7.04 5.706-12.75 12.746-12.75 7.042 0 12.751 5.71 12.751 12.75 0 7.038-5.709 12.748-12.751 12.748m.79-18.788h.038a1.921 1.921 0 0 0 1.075-1.722 1.92 1.92 0 0 0-1.919-1.918 1.917 1.917 0 0 0-.827 3.643c-3.609.184-6.41 1.576-6.41 3.267 0 1.069 1.128 2.02 2.866 2.623h.017V19.62l.004.002-.004-.014v.012c-.721-.31-1.145-.706-1.145-1.13 0-.94 2.077-1.717 4.766-1.838v10.363l-.008.005a2.502 2.502 0 0 1-1.77-2.396v-6.939s-1.465-.043-1.465 0v6.98l.032-.041a3.941 3.941 0 0 0 3.267 3.885v.013l.01.003h-3.31v1.476h7.966v-1.476H21.92v-.016a3.939 3.939 0 0 0 3.272-3.885l.034.041v-6.98c0-.043-1.469 0-1.469 0v6.94a2.503 2.503 0 0 1-1.766 2.395V16.652c2.687.123 4.758.899 4.758 1.838 0 .409-.397.786-1.067 1.094v-.04l-.016.049a.042.042 0 0 0 .016-.008v1.503c-.012.005-.024.011-.041.015l.04.01v-.025c1.707-.602 2.803-1.54 2.803-2.598 0-1.691-2.818-3.087-6.435-3.27M-.001 0h42.522v42.52H0Zm21.259 4.269c-9.383 0-16.99 7.605-16.99 16.99 0 9.384 7.607 16.991 16.99 16.991 9.388 0 16.995-7.607 16.995-16.99 0-9.386-7.607-16.991-16.995-16.991" style="stroke-width:.909564" transform="matrix(7.0553 0 0 -7.0553 .001 299.995)"/><path fill="#00569c" d="m7.056 14.264-.359.807c-.146.345-.015.617.237.727a.44.44 0 0 0 .492-.079c0 .141-.012.391.3.53.297.133.644.016.82-.384l.35-.794zm.667.59-.195.448c-.102.238-.239.353-.463.253-.175-.078-.225-.222-.104-.496l.193-.455Zm.85.37-.233.529c-.117.26-.299.334-.506.248-.262-.115-.21-.366-.123-.568l.215-.495zM7.77 18.186l.408-1.425-1.925-.557-.41 1.405.237.065.33-1.144.587.17-.304 1.057.23.071.307-1.057.647.183-.338 1.163zM5.757 17.986l-.259 1.615.24.036.105-.674 1.748.28.042-.268-1.745-.28.107-.671zM5.475 19.858l-.062 1.63.238.007.03-.675 1.765.068.013-.27-1.77-.07.027-.682zM7.557 23.266l-.123-1.479-2.004.17.124 1.458.236-.02-.098-1.187.614-.05.092 1.093.242-.024-.094-1.094.669-.053.1 1.204zM7.666 23.849l-.06-.262-1.963.434.204.908c.076.32.256.62.676.526a.491.491 0 0 0 .404-.378c.07.102.149.206.419.153l.361-.058c.112-.028.153-.022.22.05l.044-.009-.072-.325c-.13-.011-.432.045-.502.061-.167.037-.362.045-.427-.27l-.146-.641Zm-1.07.242.138.61c.04.194.04.41-.25.475-.303.068-.377-.149-.4-.28l-.153-.66ZM8.186 26.51l.4.94.217-.094-.5-1.19-1.853.778.11.256zM9.065 27.83l-.124-.243-1.78.928.124.238ZM9.419 28.456l-.141-.23-1.702 1.08.747 1.173.205-.125-.598-.948.518-.33.527.834.204-.135-.532-.826ZM11.125 30.749l-.946-1.14-1.55 1.279.932 1.127.189-.157-.757-.916.471-.393.7.85.187-.154-.705-.847.521-.429.77.934zM10.441 32.908l1.245 1.053.157-.185-.519-.44 1.142-1.347-.206-.175-1.143 1.352-.523-.444zM13.163 34.944l.227.147 1.088-1.687-.232-.148-.504.79-.884-.569.513-.788-.231-.149-1.088 1.686.228.15.453-.698.878.57zM15.069 33.703l-.247-.115-.836 1.825.844.387c.295.14.649.174.827-.215a.489.489 0 0 0-.055-.551c.123.004.252.004.373-.244l.17-.323c.05-.099.077-.134.176-.143l.022-.04-.305-.137c-.09.094-.221.37-.255.434-.07.152-.18.316-.474.175l-.598-.272zm-.456.992.573.265c.184.084.35.217.225.484-.128.284-.346.211-.465.155l-.62-.281zM17.43 34.565c-.724-.211-1.117.322-1.24.74-.12.419-.08 1.08.645 1.287.722.212 1.114-.322 1.24-.737.118-.419.074-1.083-.646-1.29m-.526 1.8c-.422-.122-.574-.526-.443-.983.13-.451.48-.711.903-.589.42.12.57.526.44.984-.13.455-.48.709-.9.588M19.901 37.135l.176-1.292c.059-.407-.152-.786-.698-.858-.535-.076-.812.235-.861.606l-.186 1.327.274.04.17-1.256c.06-.434.342-.512.584-.482.247.033.504.186.448.62l-.179 1.255zM21.422 36.244l.877-.004-.005-1.077h-.177l-.06.263a.82.82 0 0 0-.665-.31c-.35.002-.512.13-.616.232-.308.291-.313.637-.313.848.005.491.301 1.04.962 1.034.374-.002.788-.215.847-.667h-.264c-.087.354-.38.424-.602.427-.36.004-.66-.282-.665-.81-.002-.408.133-.828.665-.832.103 0 .265.01.414.126.174.136.219.318.219.533l-.618.004zM24.253 36.918l.266-.045-.303-1.987-.267.044.14.924-1.036.16-.142-.927-.268.04.305 1.986.266-.04-.125-.822 1.04-.156zM25.961 36.502l.833-.295c.353-.127.46-.411.365-.669a.428.428 0 0 0-.395-.304c.108-.097.298-.262.178-.583-.108-.305-.418-.48-.843-.334l-.815.293zm-.029-.892.46-.165c.245-.087.422-.065.505.165.063.178-.012.32-.294.417l-.466.166zm-.31-.873.545-.192c.265-.094.447-.012.523.2.092.268-.125.402-.326.477l-.505.182zM28.328 33.29l-1.32.677.915 1.79 1.303-.666-.11-.218-1.062.543-.28-.546.977-.502-.11-.213-.977.5-.306-.595 1.079-.555zM29.563 34.893l1.348-.922-.138-.196-.557.382-.997-1.464-.225.155.993 1.461-.56.383zM31.116 33.815l1.227-1.074-.154-.179-.514.448-1.163-1.333-.202.178 1.16 1.33-.514.448zM32.168 29.965l-.989 1.1 1.494 1.342.975-1.086-.177-.165-.798.888-.456-.408.734-.819-.176-.16-.736.814-.497-.447.806-.899zM32.523 29.482l-.158.227 1.667 1.126.518-.77c.19-.274.28-.608-.075-.848-.245-.167-.417-.104-.553-.038.024-.122.05-.246-.177-.412l-.296-.219c-.087-.066-.114-.1-.107-.195l-.04-.024-.185.274c.077.098.329.279.391.323.133.09.274.226.092.495l-.363.544zm.904.616.35-.522c.116-.162.273-.308.52-.143.257.177.151.374.077.485l-.384.561zM34.411 25.918l1.094.448c.053.019.293.115.47.183l-.006.008-1.779-.12-.1.25 1.344 1.164v.004a13.05 13.05 0 0 1-.458-.196l-1.098-.447-.1.244 1.865.763.145-.362-1.357-1.175v-.004l1.792.111.14-.359-1.858-.756zM34.956 23.88l-.354 1.438 1.95.483.349-1.42-.23-.062-.287 1.157-.597-.148.26-1.067-.23-.059-.263 1.07-.65-.16.287-1.177zM37.01 23.792l.084-.809c.057-.52-.303-.88-.875-.944-.45-.05-1.052.082-1.118.739l-.092.801zm-1.739-.46.06-.521c.036-.351.335-.55.84-.498.5.055.73.312.69.684l-.058.5zM35.175 21.312l-.002.27 2.013.025v-.276zM36.47 19.37c.358.04.448.334.464.522.033.365-.208.678-.737.727-.471.035-.846-.102-.889-.592-.018-.177.043-.489.499-.62l-.02-.264c-.749.178-.729.794-.717.946.041.451.375.872 1.143.807.615-.053 1.014-.444.966-1.026-.05-.512-.392-.756-.73-.762zM34.92 18.625l.048.27 1.976-.367-.051-.266zM36.418 16.378l-.075-.255-1.932.554.086.295 1.843.53v.01l-1.557.45.072.255 1.932-.565-.09-.304-1.838-.516-.005-.006zM33.67 14.963l.604 1.355 1.835-.81-.596-1.338-.214.098.484 1.087-.563.251-.449-1.006-.221.1.448 1.004-.616.27-.489-1.108zM10.812 11.585c.068.109.19.31-.07.625-.156.186-.48.37-.91.007-.279-.228-.417-.563-.145-.885.176-.21.399-.275.625-.166l.318-.383c-.396-.2-.844-.13-1.227.327-.403.488-.422 1.063.106 1.5.534.444 1.114.301 1.504-.166.456-.549.327-1.035.114-1.239zM11.696 8.929l-.346.305.586.672c.07.085.185.223-.037.415-.15.138-.348.153-.496-.016l-.555-.631-.35.308 1.307 1.49.35-.31-.465-.53.005-.003c.125.052.348.004.531-.162.264-.23.356-.532.14-.774zM12.837 8.093c-.399.258-.626.694-.334 1.137.287.443.776.414 1.174.154.399-.252.623-.687.339-1.135-.294-.444-.783-.416-1.18-.156m.665 1.022c-.3.191-.496.014-.601-.143-.102-.158-.188-.413.115-.61.3-.191.494-.011.596.145.102.16.19.409-.11.608M15.508 6.717l-.42.197.38.809c.04.098.112.268-.152.391-.19.086-.378.05-.478-.158l-.352-.758-.422.191.617 1.33.403-.183-.09-.197h.01c.094.053.283.149.584.005.311-.143.485-.413.349-.7zM18.049 7.444l-.4-1.336c-.075-.241-.22-.638-1.05-.388-.346.102-.68.339-.61.645l.482-.144c0-.079.01-.162.27-.239.237-.074.384-.012.452.213l.049.174-.005.005c-.106-.087-.246-.153-.52-.075-.4.123-.653.458-.503.95.148.483.55.621.92.512.31-.096.395-.29.422-.399h.004l.068.208zm-1.15-.86c.302-.09.44.104.501.297.067.227-.012.452-.258.526-.164.049-.377.004-.477-.327-.056-.177-.027-.412.235-.496M19.772 5.681l-.496.043.14 1.974.497-.033-.057-.808.963.742.642-.044-1.025-.742.94-1.24-.637.044-.674.918-.242-.178zM23.374 5.736l-.444-.033-.016.205h-.007c-.09-.168-.273-.272-.513-.291-.35-.03-.61.115-.645.487l-.08.966.46.042.076-.913c.02-.225.184-.257.323-.242.152.014.35.097.33.363l-.074.845.467.043zM25.531 6.191l-.45-.103-.205.871c-.02.102-.07.28-.357.214-.197-.046-.327-.198-.278-.413l.188-.822-.453-.102-.328 1.432.433.098.051-.21h.004c.04.1.133.292.458.366.337.076.637-.025.71-.342zM26.256 8.515l.95.451c.723.348 1.118-.096 1.28-.43.178-.385.262-1.025-.443-1.364l-.933-.447Zm1.147-1.266.436.207c.364.174.338.539.2.83-.251.528-.571.426-.765.336l-.43-.207ZM30.393 8.92c.098-.142.159-.145.215-.13l.032-.049-.413-.28c-.057.042-.078.058-.133.12a.781.781 0 0 0-.351-.496c-.223-.149-.517-.197-.687.055-.16.235-.062.482.165.674l.31.28c.06.046.12.118.076.19-.092.127-.252.036-.353-.034-.188-.126-.159-.25-.121-.33l-.37-.249c-.209.403.068.665.368.868.205.139.616.34.82.04zm-.614.1c-.019-.048-.068-.11-.216-.242-.13-.114-.223-.226-.137-.359.076-.114.205-.076.281-.027.166.115.276.324.178.475zM32.209 10.11l-.346-.315-.594.668c-.073.077-.197.208-.418.012-.151-.137-.192-.335-.046-.493l.561-.633-.343-.308-.982 1.092.333.3.138-.162.008.005c-.011.108-.023.32.229.541.253.232.568.285.786.047zM32.543 12.732l1.067-.89c.194-.165.504-.45-.05-1.123-.234-.278-.58-.489-.833-.307l.32.389c.074-.033.15-.055.33.158.155.188.155.342-.03.493l-.132.113h-.013c.042-.131.049-.293-.125-.5-.278-.33-.679-.428-1.072-.098-.39.325-.36.747-.11 1.045.209.25.415.25.529.231l.004.004-.17.145zm.336-1.397c.201.242.08.447-.076.58-.178.146-.42.162-.587-.036-.105-.129-.15-.347.112-.563.145-.119.373-.19.551.019M8.448 14.12a.477.477 0 0 1-.477-.481.476.476 0 1 1 .951 0c0 .261-.214.48-.474.48M34.089 13.998a.475.475 0 1 1 0-.95.475.475 0 1 1 0 .95" style="stroke-width:.909564" transform="matrix(7.0553 0 0 -7.0553 .001 299.995)"/></svg>